<svg xmlns="http://www.w3.org/2000/svg" viewBox="0 0 32 32" width="32" height="32">
  <defs>
    <linearGradient id="grad" x1="0%" y1="100%" x2="100%" y2="0%">
      <stop offset="0%" stop-color="#ea580c" />
      <stop offset="100%" stop-color="#eab308" />
    </linearGradient>
  </defs>
  <!-- Sleek premium geometric skyscraper construction shape -->
  <path d="M5 28h22v2H5V28zm3-21l8-6 8 6v22H8V7zm2 3v3h4v-3h-4zm0 5v3h4v-3h-4zm0 5v3h4v-3h-4zm6-13v3h4v-3h-4zm0 5v3h4v-3h-4zm0 5v3h4v-3h-4z" fill="url(#grad)" />
  <!-- Minimalist crane hook representation -->
  <path d="M3 2v1.5h8l1.5-1.5H3zm1.5 1.5V28h1.5V3.5H4.5z" fill="#f97316" opacity="0.8" />
</svg>
